<?xml version="1.0" encoding="utf-8"?>
<!-- Generator: Adobe Illustrator 21.0.0, SVG Export Plug-In . SVG Version: 6.00 Build 0)  -->
<svg version="1.1" id="Capa_1" xmlns="http://www.w3.org/2000/svg" xmlns:xlink="http://www.w3.org/1999/xlink" x="0px" y="0px"
	 viewBox="0 0 512 512" style="enable-background:new 0 0 512 512;" xml:space="preserve">
<style type="text/css">
	.st0{fill:#FFFFFF;}
	.st1{fill:#FF364A;}
</style>
<g>
	<path class="st0" d="M322.4,222.9c19.5,10.3,34.8,25,45.9,44.4c11.1,19.3,16.7,41.9,16.7,67.8c0,25.9-5.6,48.4-16.7,67.8
		c-11.1,19.3-26.5,34.1-45.9,44.4c-19.5,10.3-41.5,15.4-66.2,15.4c-24.7,0-46.8-5.1-66.4-15.4c-19.6-10.3-35-25-46.1-44.4
		C132.5,383.5,127,360.9,127,335c0-25.9,5.6-48.4,16.7-67.8c11.1-19.3,26.5-34.1,46.1-44.4c19.6-10.3,41.7-15.4,66.4-15.4
		C280.9,207.5,302.9,212.7,322.4,222.9z M219.4,289.3c-10,10.6-14.9,25.8-14.9,45.7c0,19.9,5,35.1,14.9,45.5
		c10,10.4,22.2,15.6,36.8,15.6c14.6,0,26.7-5.2,36.5-15.6c9.8-10.4,14.7-25.6,14.7-45.5c0-19.9-4.9-35.1-14.7-45.7
		c-9.8-10.5-22-15.8-36.5-15.8C241.7,273.5,229.4,278.8,219.4,289.3z"/>
	<path class="st1" d="M258.2,149c-16.8,0-30.2,4.7-40.2,14.1c-10.4,9-15.4,20.8-15.4,34.9c0,1,0,1.7,0.3,2.7
		c16.8-6.4,35.5-9.7,55.6-9.7c20.1,0,38.5,3.3,55.3,9.7c0-1,0-1.7,0-2.7c0-14.1-5-25.8-15.1-34.9C288.3,153.7,274.9,149,258.2,149
		L258.2,149z"/>
	<path class="st1" d="M239.7,70.3c0,11.4-9.4,20.8-20.8,20.8c-11.4,0-20.8-9.4-20.8-20.8s9.4-20.8,20.8-20.8
		C230.4,49.5,239.7,58.9,239.7,70.3L239.7,70.3z"/>
	<path class="st0" d="M249.5,84.4l-4,8.4l27.5,12.4l-28.5,13.1l33.5,8.4L256.5,138c0.7,0,1.3,0,1.7,0l0,0c5.4,0,10.7,0.7,15.4,1.3
		l29.8-16.1l-31.2-7.7l23.1-10.4L249.5,84.4z"/>
	<path class="st1" d="M251.4,366.3c-8-1.3-15.4-7-18.8-14.4c-4.4-9.4-4.4-24.8,0-34.2c2.3-4.4,5-7.7,9.7-10.7
		c4-2.3,8.4-3.7,13.7-3.7c7.7,0,13.4,2.3,18.8,8c5.4,5.7,7.7,13.1,7.7,24.1c0,13.4-4,22.5-13.4,27.8c-2,1.3-5,2.3-7.7,3
		C258.8,366.9,254.1,366.9,251.4,366.3L251.4,366.3z"/>
</g>
</svg>
